<?xml version="1.0" encoding="UTF-8" standalone="no"?>
<svg
   xmlns:dc="http://purl.org/dc/elements/1.1/"
   xmlns:cc="http://creativecommons.org/ns#"
   xmlns:rdf="http://www.w3.org/1999/02/22-rdf-syntax-ns#"
   xmlns:svg="http://www.w3.org/2000/svg"
   xmlns="http://www.w3.org/2000/svg"
   xmlns:sodipodi="http://sodipodi.sourceforge.net/DTD/sodipodi-0.dtd"
   xmlns:inkscape="http://www.inkscape.org/namespaces/inkscape"
   version="1.1"
   x="0px"
   y="0px"
   viewBox="0 0 93.222908 102.20414"
   xml:space="preserve"
   id="svg965"
   sodipodi:docname="yeti.svg"
   inkscape:version="0.92.2 5c3e80d, 2017-08-06"
   width="93.222908"
   height="102.20414"><metadata
     id="metadata971"><rdf:RDF><cc:Work
         rdf:about=""><dc:format>image/svg+xml</dc:format><dc:type
           rdf:resource="http://purl.org/dc/dcmitype/StillImage" /><dc:title></dc:title></cc:Work></rdf:RDF></metadata><defs
     id="defs969" /><sodipodi:namedview
     pagecolor="#ffffff"
     bordercolor="#666666"
     borderopacity="1"
     objecttolerance="10"
     gridtolerance="10"
     guidetolerance="10"
     inkscape:pageopacity="0"
     inkscape:pageshadow="2"
     inkscape:window-width="1888"
     inkscape:window-height="1013"
     id="namedview967"
     showgrid="false"
     inkscape:zoom="6.864"
     inkscape:cx="42.519644"
     inkscape:cy="22.760835"
     inkscape:window-x="2137"
     inkscape:window-y="48"
     inkscape:window-maximized="0"
     inkscape:current-layer="svg965"
     inkscape:measure-start="51.2821,125.146"
     inkscape:measure-end="51.4277,120.338"
     units="px"
     fit-margin-top="5"
     fit-margin-left="5"
     fit-margin-right="5"
     fit-margin-bottom="5" /><style
     type="text/css"
     id="style913">
	.st0{fill:none;stroke:#000000;stroke-miterlimit:10;}
	.st1{fill:none;stroke:#000000;stroke-width:3;stroke-linecap:round;stroke-linejoin:round;stroke-miterlimit:10;}
	.st2{fill:none;stroke:#000000;stroke-width:3;stroke-miterlimit:10;}
</style><g
     id="g947"
     transform="translate(-3.6555556,0.60413998)"><path
       class="st0"
       d="m 1995.8,334.3 c 15.1,0 27.9,-9.9 32.3,-23.6 -7.9,-8.5 -19.2,-13.8 -31.7,-13.8 -13,0 -24.6,5.7 -32.5,14.8 4.6,13.2 17.1,22.6 31.9,22.6 z"
       id="path915"
       inkscape:connector-curvature="0"
       style="fill:none;stroke:#000000;stroke-miterlimit:10" /><path
       class="st1"
       d="m 1995.8,334.3 c 15.1,0 27.9,-9.9 32.3,-23.6 -7.9,-8.5 -19.2,-13.8 -31.7,-13.8 -13,0 -24.6,5.7 -32.5,14.8 4.6,13.2 17.1,22.6 31.9,22.6 z"
       id="path917"
       inkscape:connector-curvature="0"
       style="fill:none;stroke:#000000;stroke-width:3;stroke-linecap:round;stroke-linejoin:round;stroke-miterlimit:10" /><path
       class="st2"
       d="m 2026.9,287.1 c 1.8,4.1 2.7,8.6 2.7,13.4 0,18.7 -15.2,33.8 -33.8,33.8 -18.6,0 -33.8,-15.2 -33.8,-33.8 0,-6.9 2,-13.3 5.6,-18.6"
       id="path919"
       inkscape:connector-curvature="0"
       style="fill:none;stroke:#000000;stroke-width:3;stroke-miterlimit:10" /><path
       class="st1"
       d="m 2020.5,269.1 c -1.4,0 -2.6,0.3 -3.8,0.8 -0.2,0.1 -0.3,0.1 -0.5,0.2 3,2.3 5,5.7 5.3,9.7 -2.1,-2.6 -5.4,-4.2 -9,-4.2 -0.4,0 -0.9,0 -1.3,0.1 -0.4,1 -0.6,2.1 -0.6,3.3 0,5 3.7,9.1 8.4,9.7 0.5,0.1 0.9,0.1 1.4,0.1 1.3,0 2.6,-0.3 3.7,-0.7 1.7,-0.7 3.2,-1.9 4.3,-3.4 1.2,-1.6 1.9,-3.6 1.9,-5.8 0,-5.4 -4.4,-9.8 -9.8,-9.8 z"
       id="path921"
       inkscape:connector-curvature="0"
       style="fill:none;stroke:#000000;stroke-width:3;stroke-linecap:round;stroke-linejoin:round;stroke-miterlimit:10" /><path
       class="st1"
       d="m 1977.5,255 c 2.1,0 4,0.4 5.8,1.2 0.2,0.1 0.5,0.2 0.7,0.3 -4.5,3.5 -7.6,8.8 -8.1,14.8 3.3,-3.9 8.2,-6.4 13.7,-6.4 0.7,0 1.3,0 2,0.1 0.6,1.6 0.9,3.3 0.9,5 0,7.6 -5.6,13.8 -12.9,14.9 -0.7,0.1 -1.4,0.2 -2.2,0.2 -2,0 -3.9,-0.4 -5.6,-1.1 -2.6,-1.1 -4.9,-2.9 -6.6,-5.1 -1.8,-2.5 -2.9,-5.5 -2.9,-8.8 0.1,-8.3 6.9,-15.1 15.2,-15.1 z"
       id="path923"
       inkscape:connector-curvature="0"
       style="fill:none;stroke:#000000;stroke-width:3;stroke-linecap:round;stroke-linejoin:round;stroke-miterlimit:10" /><g
       id="g929"><path
         class="st1"
         d="m 1968.9,321 c -3,2.5 -5.6,5.4 -7.8,8.6"
         id="path925"
         inkscape:connector-curvature="0"
         style="fill:none;stroke:#000000;stroke-width:3;stroke-linecap:round;stroke-linejoin:round;stroke-miterlimit:10" /><path
         class="st1"
         d="m 2032.3,329.6 c -2.5,-3.6 -5.5,-6.8 -8.9,-9.5"
         id="path927"
         inkscape:connector-curvature="0"
         style="fill:none;stroke:#000000;stroke-width:3;stroke-linecap:round;stroke-linejoin:round;stroke-miterlimit:10" /></g><path
       class="st1"
       d="m 1972.9,327.2 c -3,2.5 -5.6,5.4 -7.8,8.6"
       id="path931"
       inkscape:connector-curvature="0"
       style="fill:none;stroke:#000000;stroke-width:3;stroke-linecap:round;stroke-linejoin:round;stroke-miterlimit:10" /><path
       class="st1"
       d="m 2028.3,335.9 c -2.5,-3.6 -5.5,-6.8 -8.9,-9.5"
       id="path933"
       inkscape:connector-curvature="0"
       style="fill:none;stroke:#000000;stroke-width:3;stroke-linecap:round;stroke-linejoin:round;stroke-miterlimit:10" /><path
       class="st1"
       d="m 1979.9,331.4 c -3,2.5 -5.6,5.4 -7.8,8.6"
       id="path935"
       inkscape:connector-curvature="0"
       style="fill:none;stroke:#000000;stroke-width:3;stroke-linecap:round;stroke-linejoin:round;stroke-miterlimit:10" /><path
       class="st1"
       d="m 2021.3,340 c -2.5,-3.6 -5.5,-6.8 -8.9,-9.5"
       id="path937"
       inkscape:connector-curvature="0"
       style="fill:none;stroke:#000000;stroke-width:3;stroke-linecap:round;stroke-linejoin:round;stroke-miterlimit:10" /><line
       class="st1"
       x1="1987.5"
       y1="302.60001"
       x2="1987.5"
       y2="293.5"
       id="line939"
       style="fill:none;stroke:#000000;stroke-width:3;stroke-linecap:round;stroke-linejoin:round;stroke-miterlimit:10" /><line
       class="st1"
       x1="2004.1"
       y1="302.60001"
       x2="2004.1"
       y2="293.5"
       id="line941"
       style="fill:none;stroke:#000000;stroke-width:3;stroke-linecap:round;stroke-linejoin:round;stroke-miterlimit:10" /><circle
       class="st1"
       cx="1987.5"
       cy="290"
       r="2"
       id="circle943"
       style="fill:none;stroke:#000000;stroke-width:3;stroke-linecap:round;stroke-linejoin:round;stroke-miterlimit:10" /><circle
       class="st1"
       cx="2004.1"
       cy="290"
       r="2"
       id="circle945"
       style="fill:none;stroke:#000000;stroke-width:3;stroke-linecap:round;stroke-linejoin:round;stroke-miterlimit:10" /></g><g
     id="g959"
     transform="translate(-3.6555556,0.60413998)"><path
       d="M 91.4,94.1 73.9,76.7 V 64.9 l 2.6,2.2 c 0.5,0.4 1.1,0.4 1.6,0.2 0.5,-0.3 0.9,-0.8 0.8,-1.4 -0.1,-4.5 -0.9,-8.7 -1.6,-11.8 0.4,0.4 1.1,0.4 1.6,0.2 0.5,-0.2 0.9,-0.8 0.9,-1.4 0,-4.8 -1.4,-9.9 -2.3,-12.7 1.2,0.5 2,1.6 2,1.6 0.4,0.5 1,0.7 1.5,0.6 0.6,-0.1 1,-0.6 1.1,-1.2 0.3,-1.4 0.4,-2.8 0.4,-4.1 0,-6.5 -3.1,-12.5 -8.1,-16.3 0.8,0.1 1.2,0.2 1.2,0.2 0.6,0.2 1.3,0 1.7,-0.5 0.4,-0.5 0.4,-1.2 0.1,-1.7 -4,-5.9 -10.7,-9.5 -17.8,-9.5 -2,0 -4,0.3 -5.9,0.8 C 54.5,8.8 55.2,7.7 55.5,7.4 56,7 56.2,6.4 56.1,5.8 56,5.5 55.8,4.8 54.8,4.5 52.8,4 46,5.2 39.7,10.3 V 10.2 C 39.8,9.6 39.5,9.1 39.1,8.7 38.6,8.4 38,8.4 37.5,8.6 37.3,8.7 34,10.7 31.4,15.3 L 30.7,12.2 C 30.6,11.6 30,11.1 29.4,11 c -0.6,-0.1 -1.2,0.3 -1.5,0.8 -0.1,0.2 -2.5,5.4 -2.3,12.9 l -2.1,0.1 c -0.7,0 -1.2,0.5 -1.4,1.2 -0.2,0.7 0.1,1.3 0.7,1.7 l 1.6,0.9 c -1.3,1.8 -3.2,5.1 -4.4,10.6 -0.1,0.5 0.1,1.1 0.5,1.5 0.4,0.4 1,0.4 1.5,0.2 0.6,-0.3 1.5,-0.6 2.4,-0.8 -0.8,2.5 -2,6.9 -2.4,11.2 -0.1,0.6 0.2,1.1 0.7,1.4 0.5,0.3 1.1,0.3 1.5,0.1 0.2,-0.1 0.5,-0.3 0.7,-0.4 -0.8,2.2 -1.7,5.3 -2.3,9 -0.1,0.5 0.1,0.9 0.4,1.3 0.3,0.4 0.8,0.5 1.2,0.5 L 26.5,63 V 76.8 L 9.1,94.1 c -0.4,0.4 -0.6,1.1 -0.3,1.6 0.2,0.6 0.8,0.9 1.4,0.9 h 80.2 c 0.6,0 1.2,-0.4 1.4,-0.9 0.2,-0.5 0,-1.1 -0.4,-1.6 z M 13.8,93.7 29.2,78.3 c 0.3,-0.3 0.4,-0.7 0.4,-1.1 v -11 L 29.5,61.1 C 29.5,60.7 29.3,60.3 29,60 28.7,59.7 28.3,59.6 27.9,59.6 L 26,59.9 c 1.2,-5.7 3,-9.5 3,-9.6 0.2,-0.5 0.2,-1 -0.1,-1.5 -0.3,-0.5 -0.8,-0.7 -1.3,-0.7 -0.6,0 -1.3,0.3 -2.1,0.6 0.9,-5.2 2.6,-9.9 2.7,-10 0.2,-0.4 0.1,-0.9 -0.1,-1.3 -0.2,-0.4 -0.6,-0.7 -1.1,-0.7 -0.9,-0.1 -2.1,0.1 -3.2,0.4 1.7,-5.7 4.1,-7.9 4.2,-7.9 0.4,-0.3 0.6,-0.8 0.5,-1.3 0,-0.2 -0.1,-0.4 -0.2,-0.6 0.1,-0.1 0.2,-0.1 0.2,-0.2 0.3,-0.3 0.4,-0.7 0.4,-1.1 -0.2,-2.8 0,-5.4 0.4,-7.4 l 0.4,1.8 c 0.1,0.7 0.7,1.1 1.4,1.2 0.7,0 1.3,-0.4 1.5,-1 1,-3.1 2.5,-5.3 3.8,-6.8 l -0.1,0.4 c -0.1,0.7 0.2,1.3 0.8,1.6 0.6,0.3 1.3,0.1 1.8,-0.4 4.5,-5.1 10,-7.2 13,-7.8 -1.1,1.7 -2.1,3.8 -2.6,4.7 -0.3,0.6 -0.2,1.3 0.3,1.7 0.5,0.5 1.2,0.6 1.7,0.3 2.6,-1.4 5.5,-2 8.5,-2 5,0 9.6,2 13.1,5.4 -1,0 -2.1,0.1 -3.3,0.4 -0.7,0 -1.2,0.5 -1.4,1.1 -0.2,0.7 0.2,1.5 0.9,1.8 6.5,2.7 10.7,9.1 10.7,16.1 0,0.3 0,0.6 0,0.9 -1.2,-0.8 -2.8,-1.3 -4.6,-0.9 -0.4,0.1 -0.8,0.4 -1,0.8 -0.2,0.4 -0.2,0.8 -0.1,1.2 0,0.1 2,5.1 2.7,10.4 l -1.1,-0.9 c -0.5,-0.4 -1.3,-0.5 -1.8,-0.1 -0.6,0.4 -0.8,1.1 -0.6,1.7 0,0.1 2,5.6 2.6,12.4 l -2.4,-2 C 73.1,60.2 72.4,60.2 71.9,60.4 71.4,60.6 71,61.2 71,61.8 v 15.6 c 0,0.4 0.2,0.8 0.4,1.1 l 15.4,15.4 h -73 z"
       id="path949"
       inkscape:connector-curvature="0" /><path
       d="m 39.1,47 c 1.3,0 2.4,-1.1 2.4,-2.4 0,-1.3 -1.1,-2.4 -2.4,-2.4 -1.3,0 -2.4,1.1 -2.4,2.4 0,1.3 1.1,2.4 2.4,2.4 z m 0,-3 c 0.3,0 0.6,0.3 0.6,0.6 0,0.3 -0.3,0.6 -0.6,0.6 -0.3,0 -0.6,-0.3 -0.6,-0.6 0,-0.3 0.3,-0.6 0.6,-0.6 z"
       id="path951"
       inkscape:connector-curvature="0" /><path
       d="m 50.2,53 c 0.8,0 1.4,-0.7 1.4,-1.5 0,0.8 0.7,1.5 1.5,1.5 0.8,0 1.5,-0.7 1.5,-1.5 0,-1.6 -1.3,-2.9 -3,-2.9 -1.6,0 -2.9,1.3 -2.9,2.9 0.1,0.8 0.7,1.5 1.5,1.5 z"
       id="path953"
       inkscape:connector-curvature="0" /><path
       d="m 63.4,47 c 1.3,0 2.4,-1.1 2.4,-2.4 0,-1.3 -1.1,-2.4 -2.4,-2.4 -1.3,0 -2.4,1.1 -2.4,2.4 0,1.3 1.1,2.4 2.4,2.4 z m 0,-3 c 0.3,0 0.6,0.3 0.6,0.6 0,0.3 -0.3,0.6 -0.6,0.6 -0.3,0 -0.6,-0.3 -0.6,-0.6 0,-0.3 0.3,-0.6 0.6,-0.6 z"
       id="path955"
       inkscape:connector-curvature="0" /><path
       d="m 66.7,55.1 h -6 v -1.8 c 0,-0.8 -0.7,-1.5 -1.5,-1.5 -0.8,0 -1.5,0.7 -1.5,1.5 v 1.8 h -12 v -1.8 c 0,-0.8 -0.7,-1.5 -1.5,-1.5 -0.8,0 -1.5,0.7 -1.5,1.5 v 1.8 h -6 c -0.8,0 -1.5,0.7 -1.5,1.5 0,0.8 0.7,1.5 1.5,1.5 h 29.9 c 0.8,0 1.5,-0.7 1.5,-1.5 0,-0.8 -0.6,-1.5 -1.4,-1.5 z"
       id="path957"
       inkscape:connector-curvature="0" /></g></svg>